<svg width="81" height="16" viewBox="0 0 81 16" fill="none" xmlns="http://www.w3.org/2000/svg">
<path d="M6.13581 12.192C5.02648 12.192 4.06648 11.952 3.25581 11.472C2.45581 10.9813 1.83715 10.304 1.39981 9.44C0.962479 8.56533 0.743813 7.55733 0.743813 6.416C0.743813 5.264 0.962479 4.256 1.39981 3.392C1.83715 2.51733 2.45581 1.83467 3.25581 1.344C4.06648 0.853333 5.02648 0.608 6.13581 0.608C7.44781 0.608 8.51981 0.928 9.35181 1.568C10.1838 2.208 10.7118 3.104 10.9358 4.256H9.04781C8.89848 3.60533 8.57848 3.088 8.08781 2.704C7.59715 2.32 6.94115 2.128 6.11981 2.128C4.99981 2.128 4.11448 2.512 3.46381 3.28C2.81315 4.03733 2.48781 5.08267 2.48781 6.416C2.48781 7.73867 2.81315 8.77867 3.46381 9.536C4.11448 10.2933 4.99981 10.672 6.11981 10.672C6.94115 10.672 7.59715 10.4907 8.08781 10.128C8.57848 9.76533 8.89848 9.26933 9.04781 8.64H10.9358C10.7118 9.74933 10.1838 10.6187 9.35181 11.248C8.51981 11.8773 7.44781 12.192 6.13581 12.192ZM16.4481 12.192C15.6907 12.192 15.0081 12.0213 14.4001 11.68C13.8027 11.328 13.3281 10.8427 12.9761 10.224C12.6241 9.59467 12.4481 8.864 12.4481 8.032C12.4481 7.2 12.6241 6.47467 12.9761 5.856C13.3387 5.22667 13.8241 4.74133 14.4321 4.4C15.0401 4.048 15.7174 3.872 16.4641 3.872C17.2214 3.872 17.8987 4.048 18.4961 4.4C19.1041 4.74133 19.5841 5.22667 19.9361 5.856C20.2987 6.47467 20.4801 7.2 20.4801 8.032C20.4801 8.864 20.2987 9.59467 19.9361 10.224C19.5841 10.8427 19.1041 11.328 18.4961 11.68C17.8881 12.0213 17.2054 12.192 16.4481 12.192ZM16.4481 10.736C16.8534 10.736 17.2267 10.6347 17.5681 10.432C17.9201 10.2293 18.2027 9.93067 18.4161 9.536C18.6294 9.13067 18.7361 8.62933 18.7361 8.032C18.7361 7.43467 18.6294 6.93867 18.4161 6.544C18.2134 6.13867 17.9361 5.83467 17.5841 5.632C17.2427 5.42933 16.8694 5.328 16.4641 5.328C16.0587 5.328 15.6801 5.42933 15.3281 5.632C14.9867 5.83467 14.7094 6.13867 14.4961 6.544C14.2827 6.93867 14.1761 7.43467 14.1761 8.032C14.1761 8.62933 14.2827 9.13067 14.4961 9.536C14.7094 9.93067 14.9867 10.2293 15.3281 10.432C15.6694 10.6347 16.0427 10.736 16.4481 10.736ZM22.3142 12V4.064H23.8182L23.9622 5.184C24.2182 4.77867 24.5542 4.45867 24.9702 4.224C25.3969 3.98933 25.8875 3.872 26.4422 3.872C27.7009 3.872 28.5755 4.368 29.0662 5.36C29.3542 4.90133 29.7382 4.53867 30.2182 4.272C30.7089 4.00533 31.2369 3.872 31.8022 3.872C32.7942 3.872 33.5729 4.17067 34.1382 4.768C34.7035 5.36533 34.9862 6.256 34.9862 7.44V12H33.2902V7.616C33.2902 6.08 32.7035 5.312 31.5302 5.312C30.9329 5.312 30.4422 5.536 30.0582 5.984C29.6849 6.432 29.4982 7.072 29.4982 7.904V12H27.8022V7.616C27.8022 6.08 27.2102 5.312 26.0262 5.312C25.4395 5.312 24.9542 5.536 24.5702 5.984C24.1969 6.432 24.0102 7.072 24.0102 7.904V12H22.3142ZM40.6824 12.192C39.9038 12.192 39.2104 12.0213 38.6024 11.68C38.0051 11.328 37.5358 10.8427 37.1944 10.224C36.8531 9.60533 36.6824 8.88533 36.6824 8.064C36.6824 7.232 36.8478 6.50133 37.1784 5.872C37.5198 5.24267 37.9891 4.752 38.5864 4.4C39.1944 4.048 39.8984 3.872 40.6984 3.872C41.4771 3.872 42.1544 4.048 42.7304 4.4C43.3064 4.74133 43.7544 5.2 44.0744 5.776C44.3944 6.352 44.5544 6.98667 44.5544 7.68C44.5544 7.78667 44.5491 7.904 44.5384 8.032C44.5384 8.14933 44.5331 8.28267 44.5224 8.432H38.3464C38.3998 9.2 38.6504 9.78667 39.0984 10.192C39.5571 10.5867 40.0851 10.784 40.6824 10.784C41.1624 10.784 41.5624 10.6773 41.8824 10.464C42.2131 10.24 42.4584 9.94133 42.6184 9.568H44.3144C44.1011 10.3147 43.6744 10.9387 43.0344 11.44C42.4051 11.9413 41.6211 12.192 40.6824 12.192ZM40.6824 5.264C40.1171 5.264 39.6158 5.43467 39.1784 5.776C38.7411 6.10667 38.4744 6.608 38.3784 7.28H42.8584C42.8264 6.66133 42.6078 6.17067 42.2024 5.808C41.7971 5.44533 41.2904 5.264 40.6824 5.264ZM50.0742 12.192C49.2955 12.192 48.5969 12.016 47.9782 11.664C47.3702 11.312 46.8902 10.8267 46.5382 10.208C46.1969 9.57867 46.0262 8.85333 46.0262 8.032C46.0262 7.21067 46.1969 6.49067 46.5382 5.872C46.8902 5.24267 47.3702 4.752 47.9782 4.4C48.5969 4.048 49.2955 3.872 50.0742 3.872C51.0555 3.872 51.8769 4.128 52.5382 4.64C53.2102 5.152 53.6422 5.84533 53.8342 6.72H52.0582C51.9515 6.28267 51.7169 5.94133 51.3542 5.696C50.9915 5.45067 50.5649 5.328 50.0742 5.328C49.6582 5.328 49.2742 5.43467 48.9222 5.648C48.5702 5.85067 48.2875 6.15467 48.0742 6.56C47.8609 6.95467 47.7542 7.44533 47.7542 8.032C47.7542 8.61867 47.8609 9.11467 48.0742 9.52C48.2875 9.91467 48.5702 10.2187 48.9222 10.432C49.2742 10.6453 49.6582 10.752 50.0742 10.752C50.5649 10.752 50.9915 10.6293 51.3542 10.384C51.7169 10.1387 51.9515 9.792 52.0582 9.344H53.8342C53.6529 10.1973 53.2262 10.8853 52.5542 11.408C51.8822 11.9307 51.0555 12.192 50.0742 12.192ZM59.3856 12.192C58.6069 12.192 57.9136 12.0213 57.3056 11.68C56.7082 11.328 56.2389 10.8427 55.8976 10.224C55.5562 9.60533 55.3856 8.88533 55.3856 8.064C55.3856 7.232 55.5509 6.50133 55.8816 5.872C56.2229 5.24267 56.6922 4.752 57.2896 4.4C57.8976 4.048 58.6016 3.872 59.4016 3.872C60.1802 3.872 60.8576 4.048 61.4336 4.4C62.0096 4.74133 62.4576 5.2 62.7776 5.776C63.0976 6.352 63.2576 6.98667 63.2576 7.68C63.2576 7.78667 63.2522 7.904 63.2416 8.032C63.2416 8.14933 63.2362 8.28267 63.2256 8.432H57.0496C57.1029 9.2 57.3536 9.78667 57.8016 10.192C58.2602 10.5867 58.7882 10.784 59.3856 10.784C59.8656 10.784 60.2656 10.6773 60.5856 10.464C60.9162 10.24 61.1616 9.94133 61.3216 9.568H63.0176C62.8042 10.3147 62.3776 10.9387 61.7376 11.44C61.1082 11.9413 60.3242 12.192 59.3856 12.192ZM59.3856 5.264C58.8202 5.264 58.3189 5.43467 57.8816 5.776C57.4442 6.10667 57.1776 6.608 57.0816 7.28H61.5616C61.5296 6.66133 61.3109 6.17067 60.9056 5.808C60.5002 5.44533 59.9936 5.264 59.3856 5.264ZM70.0566 2.56C69.7366 2.56 69.4699 2.464 69.2566 2.272C69.0539 2.06933 68.9526 1.81867 68.9526 1.52C68.9526 1.22133 69.0539 0.976 69.2566 0.783999C69.4699 0.581333 69.7366 0.48 70.0566 0.48C70.3766 0.48 70.6379 0.581333 70.8406 0.783999C71.0539 0.976 71.1606 1.22133 71.1606 1.52C71.1606 1.81867 71.0539 2.06933 70.8406 2.272C70.6379 2.464 70.3766 2.56 70.0566 2.56ZM67.5286 15.52V14.08H68.1526C68.5259 14.08 68.7926 14 68.9526 13.84C69.1126 13.6907 69.1926 13.4347 69.1926 13.072V4.064H70.8886V13.088C70.8886 13.952 70.6699 14.5707 70.2326 14.944C69.7952 15.328 69.1872 15.52 68.4086 15.52H67.5286ZM75.8147 12.192C75.1427 12.192 74.588 12.08 74.1507 11.856C73.7134 11.632 73.388 11.3387 73.1747 10.976C72.9614 10.6027 72.8547 10.1973 72.8547 9.76C72.8547 8.992 73.1534 8.384 73.7507 7.936C74.348 7.488 75.2014 7.264 76.3107 7.264H78.3907V7.12C78.3907 6.50133 78.22 6.03733 77.8787 5.728C77.548 5.41867 77.116 5.264 76.5827 5.264C76.1134 5.264 75.7027 5.38133 75.3507 5.616C75.0094 5.84 74.8014 6.176 74.7267 6.624H73.0307C73.084 6.048 73.276 5.55733 73.6067 5.152C73.948 4.736 74.3747 4.42133 74.8867 4.208C75.4094 3.984 75.98 3.872 76.5987 3.872C77.708 3.872 78.5667 4.16533 79.1747 4.752C79.7827 5.328 80.0867 6.11733 80.0867 7.12V12H78.6147L78.4707 10.64C78.2467 11.0773 77.9214 11.4453 77.4947 11.744C77.068 12.0427 76.508 12.192 75.8147 12.192ZM76.1507 10.816C76.6094 10.816 76.9934 10.7093 77.3027 10.496C77.6227 10.272 77.868 9.97867 78.0387 9.616C78.22 9.25333 78.332 8.85333 78.3747 8.416H76.4867C75.8147 8.416 75.3347 8.53333 75.0467 8.768C74.7694 9.00267 74.6307 9.296 74.6307 9.648C74.6307 10.0107 74.764 10.2987 75.0307 10.512C75.308 10.7147 75.6814 10.816 76.1507 10.816ZM76.0867 3.408V2.192L79.5747 0.207999V1.616L76.0867 3.408Z" fill="#F9F9F9"/>
</svg>
